<svg width="31" height="30" viewBox="0 0 31 30" fill="none" xmlns="http://www.w3.org/2000/svg">
<g clip-path="url(#clip0_476_3855)">
<path d="M16.6764 1.3225C16.4274 1.54377 14.4913 5.38602 14.4913 5.38602L13.0508 11.1966L18.6563 10.6827C18.6563 10.6827 23.3191 2.01166 23.4136 1.81114C23.5818 1.44696 23.6717 1.29715 23.0286 1.29715C22.3856 1.29484 16.9092 1.11506 16.6764 1.3225Z" fill="#176CC7"/>
<path d="M19.5784 10.3244C19.2995 10.1746 11.0849 10.0455 10.8913 10.3244C10.7161 10.578 10.8152 11.9079 10.882 12.0669C11.0019 12.3435 13.6548 13.549 13.6548 13.549L13.6041 14.0975C13.6041 14.0975 13.8208 14.1528 15.3627 14.1528C16.9047 14.1528 17.209 14.0745 17.209 14.0745L17.2136 13.5789C17.2136 13.5789 19.6014 12.4173 19.7213 12.2559C19.8227 12.1222 19.8573 10.4742 19.5784 10.3244ZM17.1329 12.4265C17.1329 12.4265 17.209 12.0877 17.0499 12.0093C16.8909 11.9286 14.1619 11.9655 13.9452 11.977C13.7286 11.9885 13.7286 12.3758 13.7286 12.3758L12.0091 11.4907L11.9769 11.1611L18.4997 11.2072L18.4766 11.5183L17.1329 12.4265Z" fill="#F79429"/>
<path d="M14.4114 12.3047C14.1948 12.3047 14.0703 12.5306 14.0703 12.9201C14.0703 13.2843 14.1948 13.5908 14.4691 13.5678C14.6949 13.5493 14.7733 13.2036 14.7526 12.897C14.7318 12.5306 14.6857 12.3047 14.4114 12.3047Z" fill="#FDFFFF"/>
<path d="M7.50781 21.5713C7.50781 27.0938 12.5117 29.3918 15.8331 29.2927C19.703 29.1774 23.8656 26.241 23.5222 20.972C23.1995 16.028 19.0369 13.76 15.3998 13.7854C11.1726 13.8176 7.50781 16.7471 7.50781 21.5713Z" fill="#F79429"/>
<path d="M15.656 28.4576C15.5984 28.4576 15.5385 28.4576 15.4809 28.4553C13.7522 28.3977 12.0443 27.6693 10.795 26.4593C9.4582 25.1639 8.72524 23.4122 8.73446 21.5291C8.7552 16.9309 12.7749 14.7988 15.5016 14.7988H15.5247C19.2194 14.815 22.2526 17.6869 22.3379 21.5798C22.3748 23.3131 21.8216 25.0371 20.4295 26.4063C19.1295 27.6786 17.2487 28.4576 15.656 28.4576ZM15.497 15.5641C13.0515 15.5641 9.43515 17.5647 9.42593 21.5291C9.41901 24.4932 11.7147 27.5403 15.5385 27.6693C16.9952 27.7154 18.6386 27.1761 19.8486 25.9868C21.1071 24.749 21.6718 23.1356 21.6465 21.5913C21.5911 18.2423 18.8529 15.5779 15.5293 15.5641C15.5224 15.5594 15.5039 15.5641 15.497 15.5641Z" fill="#D25116"/>
<path d="M14.1412 14.5132C13.9821 14.2943 12.3526 14.3565 10.5986 15.8662C8.85607 17.3667 8.59562 19.0262 8.90908 19.1138C9.26634 19.2129 9.70197 17.6087 11.2071 16.2603C12.59 15.0272 14.457 14.9489 14.1412 14.5132ZM21.1457 20.5451C20.5903 20.6235 21.1665 22.2876 19.8781 24.15C18.7602 25.7657 17.4925 26.3511 17.64 26.7061C17.8382 27.1809 19.8688 25.9985 20.8092 24.0716C21.6597 22.3268 21.5583 20.4852 21.1457 20.5451Z" fill="#FEFFFA"/>
<path d="M6.63171 1.20263C6.4865 1.33632 12.039 11.2243 12.039 11.2243C12.039 11.2243 12.9702 11.3441 15.0492 11.3626C17.1282 11.381 18.1585 11.2427 18.1585 11.2427C18.1585 11.2427 13.8414 1.30174 13.5833 1.20263C13.4565 1.15193 11.7463 1.13349 10.0752 1.11505C8.40186 1.0943 6.77 1.07356 6.63171 1.20263Z" fill="#2E9DF4"/>
<path d="M18.026 19.6392C17.7587 17.3228 15.0619 17.1292 13.9441 18.0188C12.8562 18.8855 12.9599 20.0932 13.7228 20.2338C14.3244 20.3445 14.4811 19.8674 14.6563 19.6484C15.0527 19.1575 15.6843 19.1114 16.0968 19.5055C16.5647 19.955 16.2766 21.029 15.5736 21.0728C15.0504 21.1051 14.7854 21.0774 14.7185 21.1673C14.624 21.2941 14.6378 22.2921 14.7346 22.4027C14.8453 22.5295 15.2878 22.4511 15.6681 22.465C16.1913 22.4857 16.7468 23.2602 16.3803 23.841C16 24.4426 14.9882 24.1729 14.624 23.8087C14.1423 23.327 13.6606 23.6036 13.4992 23.7926C13.2457 24.0922 12.976 24.7745 13.9118 25.4383C14.8453 26.1021 17.678 26.2289 18.2496 24.1729C18.7475 22.3774 17.5858 21.6398 17.5858 21.6398C17.5858 21.6398 18.1781 20.9599 18.026 19.6392Z" fill="#D25116"/>
</g>
<defs>
<clipPath id="clip0_476_3855">
<rect width="29.5026" height="29.5026" fill="white" transform="translate(0.751953 0.345703)"/>
</clipPath>
</defs>
</svg>
