<svg width="24" height="26" viewBox="0 0 24 26" fill="none" xmlns="http://www.w3.org/2000/svg">
<path fill-rule="evenodd" clip-rule="evenodd" d="M15.6243 1.54802C15.5221 1.34833 15.3776 1.17215 15.2003 1.03118C15.023 0.890209 14.817 0.78768 14.596 0.730405C14.375 0.67313 14.144 0.662421 13.9184 0.69899C13.6928 0.735559 13.4778 0.818569 13.2876 0.942502C12.7317 1.30424 12.2982 1.8201 11.963 2.32653C11.6181 2.84555 11.3136 3.44791 11.0444 4.08174C10.5062 5.34624 10.055 6.86238 9.6908 8.38167C9.25036 10.2383 8.92052 12.1183 8.70296 14.0122C8.0473 13.5996 7.52048 13.0191 7.1801 12.334C6.65154 11.2646 6.53873 9.92141 6.53873 8.15991C6.53866 7.8489 6.44412 7.54489 6.26704 7.28631C6.08996 7.02773 5.83831 6.8262 5.54389 6.70719C5.24947 6.58818 4.92551 6.55703 4.61296 6.61769C4.3004 6.67835 4.0133 6.82808 3.78793 7.04797C2.73911 8.06938 1.90737 9.28293 1.34045 10.6189C0.773529 11.955 0.482605 13.3871 0.484383 14.8332C0.484517 16.6436 0.94212 18.4261 1.81666 20.0227C2.6912 21.6193 3.95568 22.9808 5.49811 23.9865C7.04054 24.9923 8.81331 25.6113 10.6594 25.7887C12.5055 25.9661 14.3679 25.6965 16.0817 25.0036C17.7955 24.3108 19.3078 23.2161 20.4846 21.8167C21.6614 20.4172 22.4664 18.756 22.8284 16.9804C23.1903 15.2047 23.098 13.3694 22.5596 11.6369C22.0211 9.90439 21.0533 8.32821 19.7416 7.04797C18.7876 6.11847 18.1624 5.4988 17.5693 4.74073C16.9844 3.99209 16.4026 3.06888 15.6243 1.54802ZM15.1811 21.3129C14.505 21.972 13.644 22.4207 12.7068 22.6024C11.7695 22.7841 10.7981 22.6907 9.91529 22.3339C9.03243 21.9771 8.2777 21.373 7.74643 20.5978C7.21516 19.8227 6.93116 18.9113 6.93032 17.9787C6.93032 17.9787 8.34682 18.7651 10.959 18.7651C10.959 17.1923 11.7648 12.474 12.9734 11.6876C13.7791 13.2604 14.24 13.7212 15.1827 14.6428C15.6324 15.0804 15.989 15.6003 16.2321 16.1728C16.4752 16.7453 16.6 17.359 16.5992 17.9787C16.6 18.5984 16.4752 19.2121 16.2321 19.7846C15.989 20.3571 15.6324 20.877 15.1827 21.3145L15.1811 21.3129Z" fill="#EB9F4A"/>
</svg>
