<svg width="25" height="24" viewBox="0 0 25 24" fill="none" xmlns="http://www.w3.org/2000/svg">
<g clip-path="url(#clip0_476_3814)">
<path d="M16.6243 11.048C16.6187 11.114 16.6396 11.1794 16.6822 11.23C16.7248 11.2806 16.7858 11.3123 16.8518 11.318L17.8268 11.403C17.8596 11.406 17.8927 11.4024 17.9241 11.3926C17.9556 11.3828 17.9848 11.3668 18.0101 11.3457C18.0354 11.3246 18.0563 11.2987 18.0716 11.2695C18.0869 11.2403 18.0963 11.2083 18.0993 11.1755C18.1022 11.1427 18.0987 11.1096 18.0888 11.0781C18.079 11.0467 18.0631 11.0174 18.0419 10.9921C18.0208 10.9668 17.9949 10.9459 17.9657 10.9307C17.9365 10.9154 17.9046 10.906 17.8718 10.903L16.8943 10.818C16.8614 10.8153 16.8283 10.8191 16.797 10.8292C16.7656 10.8393 16.7365 10.8555 16.7114 10.8768C16.6863 10.8982 16.6657 10.9243 16.6507 10.9537C16.6358 10.9831 16.6268 11.0151 16.6243 11.048ZM16.4118 8.62801C16.4202 8.65993 16.4348 8.68987 16.4549 8.7161C16.4749 8.74233 16.4999 8.76433 16.5285 8.78083C16.5571 8.79733 16.5887 8.80801 16.6214 8.81224C16.6542 8.81648 16.6874 8.81419 16.7193 8.80551L17.6643 8.55551C17.6977 8.54883 17.7295 8.53537 17.7575 8.51596C17.7856 8.49655 17.8094 8.47161 17.8274 8.44266C17.8455 8.41371 17.8574 8.38137 17.8625 8.34763C17.8676 8.31389 17.8657 8.27947 17.857 8.24648C17.8483 8.21349 17.8329 8.18264 17.8118 8.15582C17.7907 8.129 17.7644 8.10678 17.7344 8.09053C17.7044 8.07428 17.6714 8.06434 17.6374 8.06133C17.6034 8.05831 17.5692 8.06229 17.5368 8.07301L16.5893 8.32301C16.5253 8.34003 16.4708 8.38168 16.4375 8.43885C16.4042 8.49601 16.395 8.56403 16.4118 8.62801ZM15.5918 6.53301C15.6993 6.53301 15.6668 6.53301 16.5368 5.92801C16.564 5.90926 16.5872 5.88528 16.6051 5.85748C16.6231 5.82969 16.6353 5.79861 16.6411 5.76606C16.6469 5.73351 16.6462 5.70012 16.639 5.66784C16.6318 5.63557 16.6183 5.60503 16.5993 5.57801C16.561 5.52411 16.503 5.48755 16.4379 5.4763C16.3728 5.46506 16.3059 5.48005 16.2518 5.51801L15.4468 6.07801C15.403 6.10855 15.3702 6.15229 15.353 6.20284C15.3359 6.25339 15.3354 6.30808 15.3516 6.35893C15.3678 6.40977 15.3999 6.4541 15.4431 6.48542C15.4863 6.51674 15.5384 6.53342 15.5918 6.53301Z" fill="white"/>
<path d="M22.4245 16.5615C21.6969 15.83 20.7509 15.3552 19.7295 15.209C20.7197 13.134 21.041 10.8026 20.6492 8.53706C20.2573 6.27149 19.1716 4.18351 17.542 2.56155L17.477 2.49905C17.4538 2.47524 17.4259 2.45632 17.3953 2.4434C17.3646 2.43048 17.3316 2.42383 17.2983 2.42383C17.265 2.42383 17.232 2.43048 17.2013 2.4434C17.1706 2.45632 17.1428 2.47524 17.1195 2.49905L8.23954 11.3715V11.0415C8.23954 10.9752 8.2132 10.9117 8.16632 10.8648C8.11943 10.8179 8.05584 10.7915 7.98954 10.7915H6.85704C6.56873 10.7903 6.28308 10.8467 6.01689 10.9575C5.7507 11.0683 5.50936 11.2311 5.30704 11.4365C5.10472 11.2311 4.86337 11.0683 4.59719 10.9575C4.331 10.8467 4.04535 10.7903 3.75704 10.7915H2.62454C2.55823 10.7915 2.49465 10.8179 2.44776 10.8648C2.40088 10.9117 2.37454 10.9752 2.37454 11.0415C2.37454 12.169 2.31204 12.5865 2.62454 13.1865C1.61992 13.743 0.868996 14.6659 0.528473 15.7627C0.18795 16.8595 0.284135 18.0454 0.796956 19.073C1.30978 20.1006 2.19961 20.8904 3.28078 21.2777C4.36194 21.665 5.5509 21.6198 6.59954 21.1515C8.21437 21.6091 9.91192 21.6946 11.5645 21.4015C11.9671 21.5379 12.3931 21.5912 12.8168 21.5581C13.2405 21.525 13.6531 21.4063 14.0295 21.209C14.4568 21.4383 14.9316 21.5649 15.4163 21.5788C15.901 21.5926 16.3823 21.4935 16.822 21.289C18.772 21.924 21.167 21.514 22.437 20.134C22.6813 20.1499 22.9263 20.1154 23.1568 20.0328C23.3872 19.9502 23.5983 19.8212 23.7769 19.6538C23.9556 19.4864 24.0979 19.2841 24.1953 19.0595C24.2926 18.8348 24.3428 18.5926 24.3428 18.3478C24.3428 18.103 24.2926 17.8608 24.1953 17.6361C24.0979 17.4115 23.9556 17.2092 23.7769 17.0418C23.5983 16.8744 23.3872 16.7454 23.1568 16.6628C22.9263 16.5802 22.6813 16.5457 22.437 16.5615H22.4245ZM17.2945 3.02155C18.8298 4.59354 19.8386 6.60369 20.1817 8.77403C20.5248 10.9444 20.1851 13.1677 19.2095 15.1365H19.0495C18.9373 14.7763 18.7847 14.4299 18.5945 14.104C19.3072 12.3681 19.4975 10.4619 19.1423 8.61937C18.787 6.77681 17.9015 5.07805 16.5945 3.73155L17.2945 3.02155ZM16.2395 4.07905C17.4359 5.31211 18.2587 6.85874 18.6127 8.53997C18.9666 10.2212 18.8372 11.9683 18.2395 13.579C17.9565 13.192 17.5983 12.8661 17.1864 12.6208C16.7744 12.3755 16.3172 12.2159 15.842 12.1515C15.5341 12.1145 15.2223 12.1238 14.917 12.179C15.3395 11.154 15.7145 11.239 15.7145 10.6265C15.7157 10.4207 15.6499 10.2201 15.5272 10.0549C15.4044 9.88964 15.2313 9.76874 15.0339 9.71037C14.8366 9.652 14.6256 9.65932 14.4327 9.73122C14.2398 9.80312 14.0755 9.93571 13.9645 10.109C13.5788 10.7464 13.331 11.4575 13.237 12.1965C13.0174 12.1579 12.795 12.1362 12.572 12.1315C10.7895 12.1315 9.39204 13.6315 8.92954 15.4265C8.65332 14.7494 8.21763 14.1491 7.65954 13.6765C7.87672 13.4419 8.04048 13.163 8.13954 12.859C8.21908 12.6087 8.25544 12.3466 8.24704 12.084L16.2395 4.07905ZM14.3995 10.379C14.4639 10.2818 14.5639 10.2136 14.678 10.1893C14.792 10.165 14.9111 10.1864 15.0095 10.249C15.0662 10.2837 15.1144 10.3304 15.1509 10.3858C15.1873 10.4413 15.2111 10.5041 15.2204 10.5698C15.2297 10.6355 15.2244 10.7025 15.2048 10.7659C15.1852 10.8293 15.1518 10.8876 15.107 10.9365C14.6064 11.5349 14.2834 12.2615 14.1745 13.034H13.7045C13.68 12.1011 13.921 11.1803 14.3995 10.379ZM9.44454 19.584C9.16454 19.584 8.85954 19.5565 8.53704 19.5165C8.50454 19.5165 8.51454 19.5415 8.67704 19.2665C8.79525 19.0494 8.8972 18.8238 8.98204 18.5915C9.00704 18.5165 8.96454 18.5415 9.16954 19.034C9.26954 19.249 9.42704 19.5565 9.44454 19.584ZM6.85704 11.2915H7.73954C7.73954 12.1315 7.83954 12.769 7.23954 13.369C6.62884 12.9613 5.92581 12.713 5.19454 12.6465C5.27118 12.2628 5.47901 11.9176 5.78237 11.6704C6.08573 11.4231 6.46569 11.2892 6.85704 11.2915ZM2.87454 11.2915H3.75704C3.99164 11.2887 4.2242 11.3353 4.43957 11.4284C4.65495 11.5214 4.84831 11.6588 5.00704 11.8315C4.86029 12.0762 4.75946 12.3456 4.70954 12.6265C4.14716 12.6379 3.59182 12.754 3.07204 12.969C2.82204 12.499 2.87454 12.144 2.87454 11.2915ZM0.822039 17.084C0.822039 16.3015 1.05402 15.5366 1.48865 14.8859C1.92329 14.2352 2.54107 13.728 3.26392 13.4283C3.98676 13.1286 4.78223 13.0499 5.54977 13.2022C6.31731 13.3545 7.02248 13.7309 7.57615 14.2839C8.12981 14.8369 8.50712 15.5416 8.66039 16.3089C8.81365 17.0763 8.73599 17.8718 8.43723 18.5951C8.13846 19.3183 7.63199 19.9367 6.98184 20.3722C6.33169 20.8076 5.56704 21.0406 4.78454 21.0415C3.73469 21.0409 2.72795 20.6239 1.98512 19.882C1.2423 19.1401 0.824024 18.1339 0.822039 17.084ZM7.23954 20.804C7.58846 20.5695 7.90457 20.2896 8.17954 19.9715C8.7083 20.0508 9.24238 20.0892 9.77704 20.0865C10.0499 20.4502 10.381 20.7661 10.757 21.0215C9.58056 21.143 8.39209 21.0696 7.23954 20.804ZM14.152 20.7165C14.114 20.6946 14.0709 20.6831 14.027 20.6831C13.9832 20.6831 13.94 20.6946 13.902 20.7165C12.547 21.484 11.022 20.999 10.1045 19.689C8.18704 17.019 9.66704 12.6315 12.572 12.6315C12.7875 12.6373 13.0023 12.6591 13.2145 12.6965C13.2145 12.7965 13.2145 13.0965 13.227 13.314C13.2327 13.3764 13.2615 13.4343 13.3078 13.4765C13.3541 13.5186 13.4145 13.5418 13.477 13.5415L14.4095 13.5265C14.4721 13.5268 14.5325 13.5036 14.5788 13.4615C14.6251 13.4193 14.6539 13.3614 14.6595 13.299C14.6787 13.0987 14.7155 12.9004 14.7695 12.7065C15.1365 12.6332 15.5126 12.6172 15.8845 12.659C17.162 12.844 18.107 13.909 18.532 15.1165C16.9645 15.154 15.6495 15.7815 14.9295 16.5615C14.6852 16.5457 14.4403 16.5802 14.2098 16.6628C13.9793 16.7454 13.7683 16.8744 13.5896 17.0418C13.411 17.2092 13.2686 17.4115 13.1713 17.6361C13.074 17.8608 13.0237 18.103 13.0237 18.3478C13.0237 18.5926 13.074 18.8348 13.1713 19.0595C13.2686 19.2841 13.411 19.4864 13.5896 19.6538C13.7683 19.8212 13.9793 19.9502 14.2098 20.0328C14.4403 20.1154 14.6852 20.1499 14.9295 20.134C15.2701 20.4882 15.6693 20.7809 16.1095 20.999C15.4449 21.1582 14.7446 21.0571 14.152 20.7165ZM22.527 19.6365C22.3595 19.6365 22.2445 19.5765 22.132 19.709C21.112 20.9065 18.857 21.459 16.882 20.789C15.6495 20.359 15.2795 19.724 15.132 19.6515C15.1005 19.6344 15.0654 19.625 15.0295 19.624H14.982C14.8002 19.6482 14.6153 19.6333 14.4398 19.5802C14.2642 19.5272 14.102 19.4372 13.964 19.3164C13.826 19.1955 13.7154 19.0466 13.6397 18.8796C13.5639 18.7125 13.5247 18.5312 13.5247 18.3478C13.5247 18.1644 13.5639 17.9831 13.6397 17.816C13.7154 17.649 13.826 17.5001 13.964 17.3792C14.102 17.2584 14.2642 17.1684 14.4398 17.1153C14.6153 17.0623 14.8002 17.0474 14.982 17.0715C15.0241 17.0779 15.067 17.0734 15.1068 17.0585C15.1466 17.0437 15.182 17.0189 15.2095 16.9865C16.747 15.179 20.557 15.139 22.132 16.9865C22.1596 17.0189 22.195 17.0437 22.2348 17.0585C22.2746 17.0734 22.3175 17.0779 22.3595 17.0715C22.5337 17.0497 22.7105 17.0638 22.879 17.1128C23.0475 17.1618 23.2043 17.2447 23.3396 17.3565C23.4749 17.4683 23.5859 17.6066 23.6658 17.7628C23.7457 17.9191 23.7928 18.09 23.8043 18.2652C23.8157 18.4403 23.7912 18.6159 23.7323 18.7813C23.6734 18.9466 23.5813 19.0981 23.4617 19.2266C23.3421 19.355 23.1974 19.4576 23.0367 19.5281C22.876 19.5986 22.7025 19.6355 22.527 19.6365Z" fill="white"/>
</g>
<defs>
<clipPath id="clip0_476_3814">
<rect width="24" height="24" fill="white" transform="translate(0.322266)"/>
</clipPath>
</defs>
</svg>
