<svg width="25" height="24" viewBox="0 0 25 24" fill="none" xmlns="http://www.w3.org/2000/svg">
<path d="M3.86815 12.5401C3.86815 14.0562 5.10151 15.2898 6.61783 15.2898H19.0273C20.5433 15.2898 21.7769 14.0564 21.7769 12.5401V6.77312C21.7769 5.25704 20.5436 4.02344 19.0273 4.02344H6.61783C5.10175 4.02344 3.86815 5.2568 3.86815 6.77312V12.5401ZM4.67023 6.77288C4.67023 5.69888 5.54383 4.82528 6.61783 4.82528H19.0273C20.1013 4.82528 20.9749 5.69888 20.9749 6.77288V12.5398C20.9749 13.6138 20.1013 14.4874 19.0273 14.4874H6.61783C5.54383 14.4874 4.67023 13.6138 4.67023 12.5398V6.77288ZM4.26823 18.6082H10.2065C10.4281 18.6082 10.6076 18.4287 10.6076 18.2072C10.6076 17.9857 10.4281 17.8062 10.2065 17.8062H4.26823C4.04671 17.8062 3.86719 17.9857 3.86719 18.2072C3.86719 18.4287 4.04671 18.6082 4.26823 18.6082ZM21.3769 17.8062H15.9771C15.7556 17.8062 15.5761 17.9857 15.5761 18.2072C15.5761 18.4287 15.7556 18.6082 15.9771 18.6082H21.3769C21.5984 18.6082 21.7779 18.4287 21.7779 18.2072C21.7779 17.9857 21.5984 17.8062 21.3769 17.8062Z" fill="white"/>
<path d="M12.8226 9.3389C13.7195 9.3389 14.4491 8.6093 14.4491 7.71242C14.4491 6.81554 13.7195 6.08594 12.8226 6.08594C11.9257 6.08594 11.1961 6.81554 11.1961 7.71242C11.1961 8.6093 11.9257 9.3389 12.8226 9.3389ZM12.8226 6.88802C13.2772 6.88802 13.647 7.25786 13.647 7.71242C13.647 8.16698 13.2772 8.53682 12.8226 8.53682C12.368 8.53682 11.9982 8.16698 11.9982 7.71242C11.9982 7.25786 12.368 6.88802 12.8226 6.88802ZM11.313 13.231H14.332C14.8621 13.231 15.2932 12.7997 15.2932 12.2698V11.2059C15.2932 10.2715 14.5328 9.51122 13.5985 9.51122H12.0462C11.1119 9.51122 10.3516 10.2715 10.3516 11.2059V12.2698C10.3516 12.7999 10.7828 13.231 11.3128 13.231H11.313ZM11.1539 11.2056C11.1539 10.7134 11.5544 10.3131 12.0464 10.3131H13.5988C14.091 10.3131 14.4913 10.7136 14.4913 11.2056V12.2695C14.4913 12.3574 14.4198 12.4289 14.332 12.4289H11.313C11.2252 12.4289 11.1536 12.3574 11.1536 12.2695V11.2056H11.1539ZM14.613 17.8032L12.1448 16.3781C12.0208 16.3066 11.8679 16.3066 11.7438 16.3781C11.6197 16.4496 11.5434 16.5821 11.5434 16.7254V19.5754C11.5434 19.7187 11.6197 19.8509 11.7438 19.9227C11.8057 19.9584 11.8751 19.9764 11.9442 19.9764C12.0133 19.9764 12.0827 19.9584 12.1446 19.9227L14.6128 18.4975C14.7368 18.426 14.8132 18.2935 14.8132 18.1503C14.8132 18.007 14.7368 17.8747 14.6128 17.803L14.613 17.8032ZM12.3452 18.8811V17.4199L13.6105 18.1505L12.3452 18.8811Z" fill="white"/>
</svg>
