<svg width="33" height="32" viewBox="0 0 33 32" fill="none" xmlns="http://www.w3.org/2000/svg">
<path d="M16.4275 28.979C21.4503 28.979 25.5386 24.8907 25.5386 19.8679C25.5386 14.8451 21.4503 10.7568 16.4275 10.7568C11.4034 10.7568 7.31641 14.8451 7.31641 19.8679C7.31641 24.8907 11.4034 28.979 16.4275 28.979ZM16.4275 13.3599C20.016 13.3599 22.9354 16.2794 22.9354 19.8679C22.9354 23.4563 20.016 26.3758 16.4275 26.3758C12.839 26.3758 9.91958 23.4563 9.91958 19.8679C9.91958 16.2794 12.839 13.3599 16.4275 13.3599ZM15.1259 2.94727H9.91958V10.1294C11.4772 9.08713 13.2631 8.43573 15.1259 8.2304V2.94727ZM22.9354 2.94727H17.7291V8.2304C19.5919 8.43573 21.3778 9.08713 22.9354 10.1294V2.94727Z" fill="#0023DC"/>
<path d="M13.8473 20.9221L13.2382 24.4702L16.4258 22.7951L19.6133 24.4702L19.0042 20.9221L21.5839 18.4074L18.0202 17.8894L16.4258 14.6602L14.8313 17.8894L11.2676 18.4074L13.8473 20.9221Z" fill="#AB70DF"/>
</svg>
